<svg width="1920" height="1080" viewBox="0 0 1920 1080" fill="none" xmlns="http://www.w3.org/2000/svg">
<g opacity="0.5">
<path d="M-129.656 914.408C21.4042 843.566 117.858 767.419 178.321 710.446C239.463 652.832 279.191 600.253 367.956 545.799C465.804 485.597 537.988 467.498 567.098 461.781C607.462 453.867 606.899 459.367 674.725 451.037C805.015 435.04 822.349 412.906 883.237 412.198C984.188 411.015 977.394 471.371 1091.17 491.192C1173.56 505.56 1296.52 494.696 1387.85 433.635C1473.85 376.128 1464.01 319.436 1560.15 273.502C1599.64 254.633 1636.12 248.296 1709.05 235.631C1802.48 219.306 1869.01 218.093 1895.24 216.556C1972.97 212.034 2089.9 182.765 2254.75 68.0229" stroke="#5757FF" stroke-miterlimit="10"/>
<path d="M-124.092 931.819C22.4594 864.392 122.85 790.377 189.417 729.813C243.361 680.276 281.285 634.211 340.565 588.793C353.536 578.872 367.341 568.783 382.547 558.792C478.383 495.867 548.381 472.913 577.878 464.051C617.429 452.148 618.762 455.58 685.183 447.285C731.987 441.419 764.736 435.731 789.821 430.602C832.458 421.872 852.659 414.557 889.303 415.389C902.961 415.659 916.316 417.299 929.104 420.276C988.246 434.025 1001.97 475.249 1096.17 488.004C1178.18 499.109 1298.91 484.694 1388.59 424.449C1395.69 419.672 1402.56 414.62 1409.16 409.313C1475.76 355.723 1476.37 306.737 1560.83 266.27C1569.73 261.995 1578.87 258.2 1588.18 254.911C1619.47 243.778 1653.9 237.638 1708.51 228.14C1799.02 212.506 1864.49 211.238 1893.42 209.562C1914.6 208.277 1935.85 205.468 1956.97 201.164C2030.1 186.423 2127.44 150.031 2251.92 66.79" stroke="#5757FF" stroke-miterlimit="10"/>
<path d="M-117.944 950.733C24.06 886.692 128.603 815.014 201.036 750.529C258.563 699.334 298.191 650.988 355.857 605.064C369.011 594.562 382.687 583.791 397.763 573.252C491.579 507.583 558.6 478.019 589.306 467.777C628.888 454.62 631.328 453.25 696.242 445.008C741.703 439.264 774.678 434.51 799.665 430.462C841.743 423.591 861.081 417.987 895.882 420.111C909.165 420.976 922.124 423.012 934.564 426.187C992.036 440.342 1009.03 477.498 1101.83 486.36C1183.43 494.182 1301.94 476.215 1389.97 416.787C1397.4 411.684 1404.21 406.82 1410.39 401.754C1479.22 346.792 1480.87 299.662 1562.23 260.668C1571.04 256.404 1580.1 252.611 1589.34 249.315C1621.09 237.844 1655.41 231.549 1708.75 222.433C1796.33 207.405 1860.72 206.158 1892.3 204.14C1913.3 202.86 1934.38 200.132 1955.34 195.984C2027.96 181.752 2125.36 146.865 2249.67 67.1565" stroke="#5757FF" stroke-miterlimit="10"/>
<path d="M-111.286 970.891C26.2011 910.314 134.728 840.75 213.204 772.586C274.159 719.615 315.599 669.056 371.596 622.627C384.957 611.534 398.536 600.09 413.426 589.003C505.236 520.629 570.66 488.357 601.173 472.775C638.929 453.515 644.333 452.193 707.765 443.994C751.915 438.315 785.123 434.513 810.13 431.5C851.618 426.478 870.155 422.605 903.107 426.003C915.931 427.505 928.433 429.96 940.479 433.343C996.274 447.882 1016.68 480.896 1107.88 485.92C1189.17 490.422 1305.37 468.96 1391.75 410.329C1399.1 405.253 1405.86 400.408 1412.02 395.418C1482.98 339.005 1485.79 293.781 1563.91 256.087C1572.65 251.83 1581.64 248.036 1590.8 244.73C1623.02 232.903 1657.33 226.454 1709.29 217.652C1793.89 203.227 1857.23 201.964 1891.5 199.769C1912.35 198.442 1933.28 195.78 1954.1 191.806C2026.21 178.083 2123.69 144.721 2247.77 68.5349" stroke="#5757FF" stroke-miterlimit="10"/>
<path d="M-104.636 991.097C28.3423 933.936 140.821 866.542 225.356 794.671C289.755 739.897 332.976 687.114 387.367 640.2C400.911 628.526 414.361 616.399 429.119 604.764C518.947 533.743 581.92 496.986 613.087 477.822C649.909 455.175 657.289 451.22 719.333 443.028C762.29 437.436 795.567 434.583 820.524 432.566C861.414 429.374 879.143 427.28 910.26 431.923C922.603 434.056 934.649 436.923 946.316 440.506C1000.44 455.383 1024.26 484.274 1113.93 485.566C1194.91 486.729 1308.78 461.8 1393.53 403.977C1400.79 398.938 1407.51 394.111 1413.66 389.169C1486.79 331.315 1490.76 288.207 1565.64 251.688C1574.32 247.465 1583.23 243.671 1592.31 240.328C1624.95 228.181 1659.1 221.615 1709.87 213.053C1791.55 199.252 1853.84 198.001 1890.77 195.57C1911.47 194.237 1932.23 191.651 1952.91 187.83C2024.54 174.627 2122.07 142.751 2245.99 70.1161" stroke="#5757FF" stroke-miterlimit="10"/>
<path d="M-100.673 1004.25C27.797 950.502 144.259 885.289 234.828 809.719C302.64 753.131 347.644 698.058 400.459 650.736C414.154 638.47 427.553 625.72 442.134 613.488C529.932 539.838 590.562 498.666 622.236 475.821C658.2 449.912 667.639 443.116 728.136 435.015C761.556 430.568 794.978 427.795 828.23 426.71C868.585 425.301 885.473 425.043 914.647 430.862C927.398 433.431 938.205 437.244 949.6 440.606C1002.03 455.743 1029.34 480.637 1117.37 478.128C1198.09 475.905 1309.59 447.547 1392.7 390.541C1399.89 385.53 1406.56 380.721 1412.68 375.836C1488.02 316.589 1493.05 275.271 1564.77 240.196C1573.39 235.999 1582.21 232.214 1591.21 228.861C1624.33 216.416 1658.35 209.656 1707.75 201.34C1786.46 188.115 1847.73 186.905 1887.3 184.248C1907.85 182.898 1928.47 180.374 1949.02 176.693C2020.15 164.018 2117.73 133.676 2241.46 64.554" stroke="#5757FF" stroke-miterlimit="10"/>
<path d="M-98.2277 1013.77C25.6951 963.412 146.133 900.36 242.776 821.122C314 762.72 360.725 705.337 412.062 657.723C425.926 644.837 439.219 631.463 453.661 618.662C539.57 542.396 597.888 496.819 630.03 470.264C665.102 441.217 676.54 431.493 735.578 423.426C768.658 418.907 801.736 416.792 834.451 417.103C874.162 417.476 890.318 419.055 917.658 426.187C929.779 429.311 940.058 433.661 951.412 437.128C1002.22 452.671 1032.91 473.193 1119.34 467.113C1199.84 461.447 1308.96 429.707 1390.42 373.499C1397.51 368.524 1404.11 363.743 1410.24 358.897C1487.82 298.316 1493.99 258.817 1562.49 225.262C1571.03 221.07 1579.78 217.284 1588.71 213.924C1622.25 201.159 1656.2 194.226 1704.3 186.282C1780.07 173.69 1840.27 172.473 1882.54 169.61C1902.94 168.236 1923.4 165.781 1943.79 162.258C2014.44 150.102 2112.1 121.284 2235.63 55.6567" stroke="#5757FF" stroke-miterlimit="10"/>
<path d="M-95.6588 1023.4C23.7468 976.507 148.082 915.558 250.847 832.632C325.453 772.406 373.859 712.683 423.675 664.662C437.692 651.117 450.925 637.1 465.221 623.78C549.208 544.954 605.292 495.03 637.777 464.658C672.249 432.45 685.426 419.831 742.981 411.807C775.813 407.297 808.619 405.926 840.786 407.719C879.79 409.853 895.269 413.338 920.744 421.637C932.172 425.364 941.949 430.176 953.261 433.814C1002.43 449.618 1036.62 465.894 1121.38 456.223C1201.67 447.067 1308.35 411.992 1388.1 356.648C1395.12 351.701 1401.67 346.938 1407.76 342.13C1487.53 280.079 1494.7 242.522 1560.08 210.221C1568.55 206.056 1577.22 202.272 1586.05 198.888C1620.03 185.689 1653.91 178.697 1700.69 171.087C1773.51 159.062 1832.65 157.904 1877.6 154.777C1897.85 153.404 1918.16 151.027 1938.42 147.658C2008.53 135.954 2106.27 108.66 2229.6 46.6127" stroke="#5757FF" stroke-miterlimit="10"/>
<path d="M-93.0986 1033.08C21.7984 989.601 150.071 930.784 258.909 844.19C336.92 782.131 387 720.049 435.363 671.727C449.508 657.6 462.729 642.988 476.794 629.004C558.883 547.609 612.781 493.319 645.586 459.139C679.417 423.807 694.341 408.246 750.437 400.256C783.008 395.753 815.525 395.067 847.075 398.219C885.571 402.06 900.158 407.533 923.769 417C934.535 421.339 943.842 426.555 955.088 430.375C1002.62 446.46 1040.25 458.45 1123.36 445.247C1203.46 432.523 1307.71 394.2 1385.88 339.626C1392.83 334.707 1399.33 329.962 1405.4 325.23C1487.42 261.836 1495.6 226.105 1557.83 195.162C1566.24 191.02 1574.83 187.236 1583.58 183.826C1617.99 170.261 1651.89 163.125 1697.3 155.828C1767.15 144.427 1825.25 143.291 1872.86 139.928C1892.97 138.568 1913.13 136.285 1933.25 133.09C2002.91 121.963 2100.69 96.1166 2223.84 37.6014" stroke="#5757FF" stroke-miterlimit="10"/>
<path d="M-90.5535 1042.72C19.8126 1002.6 152.062 945.877 266.981 855.633C348.485 791.685 400.089 727.28 447.062 678.676C461.336 663.9 474.521 648.704 488.423 634.161C568.613 550.264 620.355 491.619 653.42 453.544C686.742 415.147 703.313 396.594 757.926 388.649C790.28 384.201 822.532 384.248 853.419 388.787C891.287 394.314 905.109 401.815 926.848 412.431C936.952 417.382 945.71 423.011 957.04 426.976C1002.98 443.304 1044.04 450.874 1125.5 434.272C1205.41 417.943 1307.21 376.42 1383.76 322.653C1390.61 317.771 1397.07 313.045 1403.16 308.457C1487.41 243.709 1496.63 209.796 1555.67 180.268C1564.01 176.105 1572.55 172.313 1581.25 168.91C1616.15 155.132 1649.82 147.754 1693.99 140.648C1760.89 129.86 1817.94 128.755 1868.24 125.148C1886.42 123.856 1906.33 121.825 1928.16 118.446C1997.31 107.828 2095.16 83.5065 2218.1 28.5136" stroke="#5757FF" stroke-miterlimit="10"/>
<path d="M-88.1131 1052.09C17.6334 1015.45 153.843 960.851 274.898 866.959C359.682 801.204 412.985 734.364 458.598 685.49C472.978 670.073 486.158 654.302 499.882 639.162C578.268 552.726 627.91 489.727 661.076 447.841C693.844 406.264 712.082 384.844 765.236 376.933C797.41 372.534 829.424 373.284 859.625 379.143C896.922 386.356 909.795 395.978 929.79 407.649C939.231 413.213 947.496 419.255 958.688 423.429C1003.01 439.961 1047.53 443.236 1127.3 423.168C1207.06 403.1 1306.38 358.481 1381.28 305.532C1388.06 300.677 1394.47 295.969 1400.52 291.4C1487.02 225.288 1497.27 193.193 1553.21 165.024C1561.46 160.883 1569.91 157.106 1578.51 153.71C1613.91 139.537 1647.43 132.061 1690.21 125.364C1754.17 115.162 1810.15 114.117 1863.13 110.246C1881.22 108.943 1900.98 106.948 1922.62 103.757C1991.25 93.6483 2089.17 70.8319 2211.94 19.3907" stroke="#5757FF" stroke-miterlimit="10"/>
<path d="M-85.6941 1061.34C15.63 1028.12 155.628 975.624 282.826 878.103C371.101 810.525 425.83 741.246 470.113 692.178C484.615 676.093 497.797 659.766 511.392 644.011C587.918 555.035 635.506 487.731 668.704 441.926C701.096 397.345 720.935 372.817 772.448 365.033C806.653 359.867 840.897 363.362 865.709 369.323C902.442 378.175 914.595 389.875 932.633 402.684C941.365 408.878 949.16 415.325 960.293 419.698C1003.02 436.387 1050.89 435.299 1129.03 411.843C1208.49 388.053 1305.5 340.341 1378.75 288.208C1385.44 283.39 1391.8 278.7 1397.82 274.14C1486.54 206.656 1497.8 176.387 1550.54 149.643C1558.72 145.514 1567.09 141.736 1575.62 138.325C1611.39 123.785 1644.87 116.193 1686.46 109.755C1747.47 100.167 1802.33 99.1806 1858 95.0645C1876 93.7316 1895.62 91.8113 1917.02 88.7792C1985.17 79.19 2083.16 57.8789 2205.7 9.9214" stroke="#5757FF" stroke-miterlimit="10"/>
<path d="M-83.3436 1070.48C13.4794 1040.7 157.183 990.087 290.679 889.121C382.072 819.534 438.598 748.002 481.576 698.665C496.146 681.91 509.409 665.019 522.731 648.704C597.538 557.267 643.035 485.494 676.326 435.925C708.334 388.253 729.56 360.835 779.796 352.992C812.753 347.912 847.154 352.233 871.905 359.372C908.075 369.863 919.24 383.722 935.564 397.595C943.658 404.392 950.92 411.224 962.019 415.788C1003.18 432.73 1054.41 427.116 1130.99 400.454C1210.25 372.838 1304.83 322.136 1376.43 270.801C1383.06 266.021 1389.36 261.353 1395.34 256.798C1486.35 187.98 1498.6 159.5 1548.18 134.162C1556.27 130.039 1564.57 126.263 1573.01 122.849C1609.22 107.962 1642.65 100.235 1682.94 94.0824C1740.96 85.0986 1794.86 84.2215 1853.2 79.7745C1871.12 78.4498 1890.57 76.5554 1911.78 73.6832C1979.43 64.6225 2077.49 44.8167 2199.86 0.430212" stroke="#5757FF" stroke-miterlimit="10"/>
<path d="M-81.0457 1079.48C11.2377 1053.11 158.902 1004.62 298.479 900.004C393.278 828.583 451.315 754.556 493.01 705.074C507.662 687.688 520.919 670.222 534.088 653.301C607.137 559.374 650.692 483.163 683.864 429.779C715.53 378.978 738.206 348.556 786.872 340.812C818.596 335.789 853.186 340.947 877.844 349.32C913.499 361.432 923.69 377.488 938.222 392.435C945.543 399.91 952.447 407.08 963.456 411.835C1003.21 428.879 1058.55 420.695 1132.76 388.87C1210.78 355.409 1303.98 303.737 1373.96 253.21C1380.51 248.46 1386.76 243.814 1392.7 239.271C1486.07 169.226 1499.22 142.418 1545.63 118.485C1553.66 114.38 1561.88 110.609 1570.26 107.188C1606.91 91.9727 1640.34 84.0445 1679.19 78.1856C1734.21 69.9492 1787.19 69.1821 1848.15 64.3839C1865.99 63.0483 1885.29 61.2091 1906.27 58.5153C1973.44 49.974 2071.56 31.6733 2193.73 -9.17159" stroke="#5757FF" stroke-miterlimit="10"/>
<path d="M-78.8798 1088.43C8.88003 1065.43 160.496 1019.11 306.146 910.828C404.351 837.574 463.766 761.125 504.258 711.356C519.048 693.272 532.323 675.29 545.237 657.713C616.553 561.22 658.045 480.75 691.256 423.468C722.689 369.54 746.908 336.211 794.131 328.473C824.6 323.516 859.37 329.491 883.959 339.089C919.083 352.783 928.23 371.065 941.105 387.011C947.701 395.144 954.19 402.653 965.148 407.627C1003.21 424.884 1060.94 410.358 1134.46 377.18C1212.95 341.83 1303.04 285.241 1371.37 235.531C1377.73 230.842 1384.09 226.152 1389.95 221.656C1485.54 150.238 1499.74 125.219 1542.99 102.712C1550.95 98.6116 1559.08 94.8428 1567.38 91.4208C1604.47 75.8575 1637.73 67.8404 1675.38 62.269C1727.52 54.5043 1779.33 53.7089 1842.99 48.7716C1860.76 47.4158 1879.9 45.5263 1900.77 43.0796C1967.39 34.9511 2065.64 18.2429 2187.5 -19.0237" stroke="#5757FF" stroke-miterlimit="10"/>
<path d="M-76.5382 1097.19C6.70431 1077.66 162.219 1033.44 313.997 921.492C415.702 846.367 476.385 767.429 515.633 717.544C530.388 698.808 543.853 680.264 556.558 662.147C626.387 563.302 665.619 478.207 698.632 417.186C729.668 360.061 755.241 323.898 801.185 316.169C830.398 311.278 865.397 318.052 889.886 328.865C924.547 344.247 932.558 364.657 943.791 381.64C949.597 390.48 955.712 398.289 966.588 403.473C1003.13 420.878 1064.08 401.727 1136.08 365.479C1214.19 326.261 1302.06 266.716 1368.72 217.812C1375.07 213.123 1381.27 208.498 1387.19 204.157C1485.02 131.356 1500.17 108.096 1540.29 86.9854C1548.24 82.9003 1556.38 79.1475 1564.67 75.742C1599.01 61.1745 1635.14 51.2625 1671.61 46.4011C1720.81 39.2505 1771.56 38.4862 1837.91 33.3042C1855.58 31.9182 1874.58 30.1509 1895.15 27.8432C1991.14 16.6792 2086.94 -2.2521 2181.26 -28.6939" stroke="#5757FF" stroke-miterlimit="10"/>
<path d="M-74.3376 1105.94C4.39646 1089.83 163.848 1047.74 321.7 932.124C426.715 855.203 488.878 773.826 527.033 723.655C696.337 500.846 707.505 321.117 808.368 303.703C836.325 298.878 871.553 306.452 895.924 318.508C947.963 344.227 936.693 383.443 968.164 399.177C1045.33 437.769 1262.47 276.836 1384.52 186.399C1503.51 98.2134 1503.87 84.5571 1561.69 59.8769C1662.6 16.7491 1728.73 29.5177 1889.56 12.3962C1985.14 2.10367 2080.66 -14.9644 2175.14 -38.6309" stroke="#5757FF" stroke-miterlimit="10"/>
<path d="M-72.1955 1111.46C8.96196 1095.75 163.09 1054.01 313.982 943.422C418.101 867.004 476.618 786.489 517.832 733.31C682.528 521.034 695.296 355.462 795.404 330.908C834.513 321.307 876.085 316.363 906.831 321.595C967.251 331.896 959.225 365.215 996.772 377.635C1078.98 404.858 1283.21 259.106 1399.91 174.295C1513.55 91.5613 1514.98 80.0872 1577.64 57.9653C1681.76 21.2022 1743.97 31.0728 1895.75 15.647C1990.45 6.01009 2085.11 -11.2178 2178.5 -35.8085" stroke="#5757FF" stroke-miterlimit="10"/>
<path d="M-69.9634 1117.2C65.6776 1091.77 195.785 1035.67 306.346 954.931C409.577 879.036 464.291 799.399 508.712 743.177C668.39 541.216 683.134 387.258 782.545 358.315C832.992 343.644 879.28 326.905 917.827 324.912C983.933 321.422 980.827 347.259 1025.47 356.324C1110.74 373.593 1304.03 241.588 1415.41 162.393C1523.48 85.1947 1525.93 75.7008 1593.69 56.2564C1700.6 25.5544 1759.38 33.0327 1902.04 19.1289C1995.82 10.1409 2089.6 -7.23672 2181.85 -32.7181" stroke="#5757FF" stroke-miterlimit="10"/>
<path d="M-65.9938 1127.42C66.0759 1103.7 192.95 1049.52 300.471 970.905C402.784 895.522 453.717 816.754 501.33 757.517C655.466 565.786 678.587 436.622 771.401 390.204C829.465 361.169 883.649 342.783 930.577 332.674C1001.48 317.38 1003.49 334.063 1055.92 339.457C1142.72 348.387 1326.7 228.718 1432.63 154.973C1535.39 83.4297 1538.45 75.6509 1611.45 59.0107C1720.97 34.0411 1776.48 39.4363 1910.09 27.0555C2002.96 18.741 2095.89 1.21059 2187.02 -25.1822" stroke="#5757FF" stroke-miterlimit="10"/>
<path d="M-59.9495 1142.98C68.5343 1120.97 192.165 1068.68 296.625 992.17C398.035 917.271 445.165 839.382 496.001 777.14C644.369 595.482 670.699 476.544 762.332 427.367C830.413 390.846 888.333 352.946 945.356 345.728C1023.82 335.795 1026.98 335.989 1088.4 327.883C1172.09 343.326 1351.39 221.082 1451.92 152.827C1549.26 86.831 1552.95 80.7388 1631.29 67.0578C1743.22 47.5205 1795.64 51.2091 1920.16 40.2742C2012.13 32.6237 2104.23 14.931 2194.2 -12.3735" stroke="#5757FF" stroke-miterlimit="10"/>
<path d="M-53.7628 1158.91C71.1358 1138.62 191.552 1088.28 293.028 1013.94C393.551 939.561 436.831 862.502 490.921 797.264C633.258 625.561 662.412 516 753.347 465.097C831.748 421.238 893.567 375.965 960.391 359.303C1046.56 337.814 1052.24 330.9 1121.14 316.83C1206.36 326.395 1376.19 213.821 1471.29 151.248C1563.21 90.7987 1567.47 86.1911 1651.22 75.6714C1765.59 61.2411 1814.9 63.5869 1930.33 54.05C2021.41 47.0648 2112.68 29.2064 2201.49 0.992427" stroke="#5757FF" stroke-miterlimit="10"/>
<path d="M-47.4563 1175.14C73.8116 1156.54 190.969 1108.13 289.419 1035.95C389.046 962.081 428.43 885.87 485.828 817.639C622.003 655.763 653.802 555.115 744.658 502.956C833.24 452.102 904.811 410.807 975.407 373.108C1062.58 326.553 1077.48 326.023 1153.85 306.007C1240.77 309.765 1401.11 206.85 1490.96 149.798C1577.45 94.896 1582.25 91.6574 1671.44 84.4146C1787.96 74.9622 1834.44 76.1899 1940.7 68.0209C2030.88 61.689 2121.33 43.6617 2208.97 14.5533" stroke="#5757FF" stroke-miterlimit="10"/>
<path d="M-41.0674 1191.59C55.2077 1178.09 177.031 1138.82 285.971 1058.17C384.849 984.969 420.151 909.412 480.873 838.225C610.66 686.087 645.062 594.037 735.941 541.092C835.03 483.382 912.653 434.433 990.584 387.117C1083.91 330.427 1100.89 309.562 1186.73 295.387C1275.67 280.696 1426.13 200.167 1510.6 148.625C1591.66 99.2511 1597.01 97.3051 1691.62 93.4156C1810.56 88.6387 1853.99 89.0992 1951.26 82.1574C2011.73 77.8399 2101.65 67.9836 2216.65 28.2798" stroke="#5757FF" stroke-miterlimit="10"/>
<path d="M-34.5662 1208.32C64.2121 1195.16 180.632 1156.3 282.605 1080.67C380.595 1007.99 411.907 933.185 476.023 859.082C599.258 716.612 635.952 633.058 727.351 579.489C837.069 515.165 920.858 458.362 1005.84 401.405C1105.6 334.537 1125.65 305.357 1219.69 285.047C1309.35 265.749 1451.18 193.61 1530.37 147.713C1606.04 103.849 1611.99 102.87 1711.94 102.697C1833.25 102.46 1873.63 102.374 1961.81 96.6101C2021.54 92.7121 2110.25 83.3252 2224.32 42.3419" stroke="#5757FF" stroke-miterlimit="10"/>
<path d="M-27.99 1225.25C73.4 1212.49 184.309 1173.98 279.32 1103.39C376.422 1031.23 403.69 957.169 471.255 880.151C587.822 747.261 626.849 672.098 718.821 618.108C839.368 547.336 929.286 482.515 1021.18 415.905C1127.57 338.805 1150.69 301.798 1252.73 274.918C1343.27 251.065 1476.35 187.361 1550.2 147.023C1620.33 108.684 1627.04 108.628 1732.32 112.199C1856.1 116.371 1893.34 115.928 1972.44 111.275C2031.47 107.806 2118.95 98.9844 2232.06 56.5967" stroke="#5757FF" stroke-miterlimit="10"/>
<path d="M-21.3165 1242.43C82.4669 1230.01 188.099 1191.88 276.126 1126.33C372.333 1054.67 395.486 981.325 466.577 901.451C576.345 778.082 612.438 702.528 710.404 656.948C849.29 592.322 937.883 506.891 1036.61 430.637C1149.74 343.287 1173.5 277.606 1285.86 265.021C1379.75 254.577 1501.47 181.265 1570.14 146.554C1634.8 113.781 1642.23 114.513 1752.81 121.904C1879.11 130.38 1913.13 129.809 1983.16 126.171C2041.47 123.16 2127.75 114.827 2239.91 71.102" stroke="#5757FF" stroke-miterlimit="10"/>
<path d="M-14.4258 1260.17C91.8758 1248.12 192.068 1210.31 273.217 1149.94C368.505 1078.79 387.467 1006.1 462.161 923.426C565.139 809.462 604.113 743.64 702.226 696.472C851.563 624.635 946.844 531.924 1052.33 446.033C1172.28 348.397 1198.11 278.207 1319.28 255.79C1415.4 238.022 1527.07 175.914 1590.32 146.769C1649.51 119.495 1657.83 120.921 1773.54 132.313C1902.45 144.988 1933.21 144.423 1994.17 141.732C2051.74 139.208 2136.81 131.325 2248.03 86.2534" stroke="#5757FF" stroke-miterlimit="10"/>
<path d="M-7.10067 1279.03C101.695 1267.36 196.478 1229.94 270.637 1174.46C365.029 1103.82 379.699 1031.73 458.098 946.307C554.002 841.793 596.116 785.668 694.423 736.894C854.184 657.634 956.212 557.864 1068.38 462.365C1195.26 354.339 1224.08 280.546 1353.03 247.493C1451.09 222.36 1552.86 171.419 1610.88 147.882C1664.54 126.105 1673.82 128.179 1794.65 143.618C1926.2 160.436 1953.71 160.001 2005.52 158.229C2062.37 156.249 2146.34 148.703 2256.49 102.34" stroke="#5757FF" stroke-miterlimit="10"/>
<path d="M0.351784 1298.21C111.666 1286.92 201.023 1249.86 268.229 1199.43C361.719 1129.27 371.98 1057.69 454.206 969.632C543.071 874.442 588.206 828.128 686.769 777.768C856.776 690.911 965.792 584.21 1084.6 479.121C1218.55 360.668 1251.07 283.907 1386.95 239.62C1486.67 207.118 1578.83 167.3 1631.58 149.447C1679.68 133.139 1690.03 135.775 1815.9 155.377C1950.24 176.262 1974.21 176.27 2017.03 175.168C2073.14 173.809 2155.79 166.644 2265.12 118.87" stroke="#5757FF" stroke-miterlimit="10"/>
<path d="M8.4634 1319.09C122.288 1308.16 206.112 1271.38 266.472 1226.07C358.921 1156.25 364.733 1085.23 450.966 994.634C532.722 908.73 580.916 872.256 679.79 820.311C859.874 725.7 976.079 612.234 1101.37 497.591C1242.21 368.786 1283.13 297.303 1421.42 233.462C1519.98 187.988 1605.33 164.905 1652.87 152.717C1695.45 141.811 1706.88 145.049 1837.73 168.821C1974.88 193.784 1995.31 194.148 2029.09 193.784C2084.44 193.208 2165.92 186.207 2274.3 137.095" stroke="#5757FF" stroke-miterlimit="10"/>
<path d="M16.4926 1339.76C132.812 1329.21 211.242 1292.8 264.665 1252.52C356.194 1183.21 357.188 1112.41 447.651 1019.44C522.252 942.777 573.496 916.19 672.712 862.669C862.782 760.141 986.307 640.037 1118.29 515.805C1266.22 376.525 1311.19 298.851 1456.04 227.048C1556.67 177.218 1631.97 162.1 1674.24 155.73C1711.33 150.198 1723.9 153.971 1859.66 182.027C1999.72 210.965 2016.5 211.921 2041.3 212.162C2095.82 212.684 2176.17 205.502 2283.62 155.044" stroke="#5757FF" stroke-miterlimit="10"/>
<path d="M24.5292 1360.45C143.288 1350.28 216.521 1314.18 262.833 1278.97C353.373 1210.2 349.357 1139.35 444.337 1044.25C511.752 976.745 566.052 960.134 665.659 905.019C865.521 794.426 996.529 667.754 1135.08 534.045C1290.1 384.311 1339.29 300.294 1490.54 220.66C1593.66 166.377 1658.55 159.207 1695.55 158.771C1727.12 158.401 1740.79 162.92 1881.52 195.26C2024.51 228.183 2037.56 229.837 2053.39 230.567C2106.9 233.057 2186.31 224.863 2292.82 173.058" stroke="#5757FF" stroke-miterlimit="10"/>
</g>
</svg>
